<?xml version="1.0" encoding="UTF-8" standalone="no"?>
<!DOCTYPE svg PUBLIC "-//W3C//DTD SVG 1.1//EN" "http://www.w3.org/Graphics/SVG/1.1/DTD/svg11.dtd">
<svg width="100%" height="100%" viewBox="0 0 256 256" version="1.1" xmlns="http://www.w3.org/2000/svg" xmlns:xlink="http://www.w3.org/1999/xlink" xml:space="preserve" xmlns:serif="http://www.serif.com/" style="fill-rule:evenodd;clip-rule:evenodd;stroke-linejoin:round;stroke-miterlimit:2;">
    <rect id="Artboard1" x="0" y="0" width="256" height="256" style="fill:none;"/>
    <g id="Artboard11" serif:id="Artboard1">
        <g transform="matrix(4.28571,0,0,4.28571,-1654.86,-2477.71)">
            <rect x="394" y="585" width="49" height="6" style="fill:rgb(62,79,89);"/>
            <rect x="394" y="591" width="49" height="40" style="fill:rgb(172,190,194);"/>
            <path d="M394,591L394,631L423.77,631C435.545,620.373 442.855,604.673 442.395,591L394,591Z" style="fill:rgb(232,237,238);"/>
            <path d="M396,584C394.355,584 393,585.355 393,587L393,627C393,627.552 393.448,628 394,628C394.552,628 395,627.552 395,627L395,587C395,586.436 395.436,586 396,586L441,586C441.564,586 442,586.436 442,587L442,590L400,590C399.448,590 399,590.448 399,591C399,591.552 399.448,592 400,592L442,592L442,629C442,629.564 441.564,630 441,630L392,630C391.448,630 391,630.448 391,631C391,631.552 391.448,632 392,632L441,632C442.645,632 444,630.645 444,629L444,587C444,585.355 442.645,584 441,584L396,584Z"/>
            <path d="M439,587C438.448,587 438,587.448 438,588C438,588.552 438.448,589 439,589C439.552,589 440,588.552 440,588C440,587.448 439.552,587 439,587Z" style="fill:rgb(237,113,97);"/>
            <path d="M435,587C434.448,587 434,587.448 434,588C434,588.552 434.448,589 435,589C435.552,589 436,588.552 436,588C436,587.448 435.552,587 435,587Z" style="fill:rgb(236,186,22);"/>
            <path d="M431,587C430.448,587 430,587.448 430,588C430,588.552 430.448,589 431,589C431.552,589 432,588.552 432,588C432,587.448 431.552,587 431,587Z" style="fill:rgb(66,176,92);"/>
            <path d="M389,630C388.451,630 388,630.451 388,631C388,631.549 388.451,632 389,632C389.549,632 390,631.549 390,631C390,630.451 389.549,630 389,630ZM397,590C396.448,590 396,590.448 396,591C396,591.552 396.448,592 397,592C397.552,592 398,591.552 398,591C398,590.448 397.552,590 397,590Z"/>
            <path d="M428,613.345L428,598.476C427.999,597.348 426.895,596.553 425.825,596.909L413.129,601.04C412.455,601.265 412,601.896 412,602.606L412,614.951L416,614.951L416,603.7L424,601.7L424,613.345L428,613.345Z" style="fill:rgb(0,117,211);"/>
            <path d="M417,601.904C415.299,601.911 413.611,602.1 412.012,602.463C412.008,602.51 412,602.557 412,602.605L412,614.951L416,614.951L416,603.701L421.467,602.334C420.021,602.049 418.515,601.904 417,601.904ZM424,603L424,613.346L428,613.346L428,604.947C426.854,604.16 425.501,603.501 424,603Z" style="fill:rgb(5,136,226);"/>
            <path d="M402.5,623C401.951,623 401.5,623.451 401.5,624C401.5,624.549 401.951,625 402.5,625L408.117,625C408.666,625 409.117,624.549 409.117,624C409.117,623.451 408.666,623 408.117,623L402.5,623ZM412,623C411.451,623 411,623.451 411,624C411,624.549 411.451,625 412,625L434.5,625C435.049,625 435.5,624.549 435.5,624C435.5,623.451 435.049,623 434.5,623L412,623Z"/>
            <path d="M428,624C428,625.097 427.097,626 426,626C424.903,626 424,625.097 424,624C424,622.903 424.903,622 426,622C427.097,622 428,622.903 428,624Z" style="fill:rgb(5,136,226);"/>
            <path d="M426,621C424.355,621 423,622.355 423,624C423,625.645 424.355,627 426,627C427.645,627 429,625.645 429,624C429,622.355 427.645,621 426,621ZM426,623C426.564,623 427,623.436 427,624C427,624.564 426.564,625 426,625C425.436,625 425,624.564 425,624C425,623.436 425.436,623 426,623ZM426.768,595.865C426.361,595.795 425.932,595.82 425.51,595.961L416.686,598.832C416.165,599.002 415.875,599.571 416.045,600.092C416.215,600.613 416.783,600.902 417.305,600.732L426.135,597.859C426.137,597.859 426.139,597.858 426.141,597.857C426.591,597.707 427,598.002 427,598.477L427,601.035C427,601.584 427.452,602.035 428,602.035C428.549,602.035 429,601.584 429,601.035L429,598.475C428.999,597.139 427.987,596.076 426.768,595.865L426.768,595.865ZM412.813,600.092C411.734,600.452 411.001,601.468 411,602.605L411,614.951C411,615.5 411.451,615.951 412,615.951L416,615.951C416.549,615.951 417,615.5 417,614.951L417,604.48L423,602.98L423,613.346C423,613.894 423.451,614.346 424,614.346L428,614.346C428.549,614.346 429,613.894 429,613.346L429,605C429,604.451 428.549,604 428,604C427.451,604 427,604.451 427,605L427,612.346L425,612.346L425,601.701C425,601.152 424.549,600.701 424,600.701C423.918,600.701 423.837,600.711 423.758,600.73L415.758,602.73C415.314,602.841 415,603.244 415,603.701L415,613.951L413,613.951L413,602.605C413.001,602.322 413.176,602.078 413.445,601.988C413.853,601.853 414.13,601.469 414.13,601.039C414.13,600.932 414.112,600.825 414.078,600.723C413.904,600.202 413.333,599.918 412.812,600.092L412.813,600.092Z"/>
            <path d="M428,613.7C428,615.123 426.183,616.276 423.941,616.276C421.699,616.276 419.882,615.123 419.882,613.7C419.882,612.278 421.699,611.125 423.941,611.125C426.183,611.125 428,612.278 428,613.7Z" style="fill:rgb(254,115,197);"/>
            <path d="M422.184,612.375C421.462,612.375 420.784,612.496 420.197,612.705C419.995,613.011 419.883,613.348 419.883,613.701C419.883,615.124 421.7,616.275 423.941,616.275C424.664,616.275 425.342,616.156 425.93,615.945C426.132,615.639 426.242,615.304 426.242,614.951C426.242,613.529 424.425,612.375 422.184,612.375Z" style="fill:rgb(254,147,211);"/>
            <path d="M416,614.7C416,616.066 414.209,617.172 412,617.172C409.791,617.172 408,616.066 408,614.7C408,613.335 409.791,612.228 412,612.228C414.209,612.228 416,613.335 416,614.7Z" style="fill:rgb(254,115,197);"/>
            <path d="M410.242,613.479C409.527,613.479 408.856,613.596 408.275,613.799C408.098,614.078 408,614.383 408,614.701C408,616.066 409.791,617.172 412,617.172C412.715,617.172 413.386,617.057 413.967,616.854C414.144,616.574 414.242,616.27 414.242,615.951C414.242,614.586 412.451,613.479 410.242,613.479Z" style="fill:rgb(254,147,211);"/>
            <path d="M423.941,610.125C422.649,610.125 421.464,610.446 420.535,611.035C419.606,611.625 418.883,612.564 418.883,613.701C418.883,614.838 419.606,615.776 420.535,616.365C421.464,616.955 422.649,617.275 423.941,617.275C425.234,617.275 426.419,616.955 427.348,616.365C428.276,615.776 429,614.838 429,613.701C429,612.564 428.276,611.625 427.348,611.035C426.419,610.446 425.234,610.125 423.941,610.125ZM423.941,612.125C424.891,612.125 425.735,612.38 426.275,612.723C426.816,613.065 427,613.416 427,613.701C427,613.987 426.816,614.335 426.275,614.678C425.735,615.021 424.891,615.275 423.941,615.275C422.992,615.275 422.148,615.021 421.607,614.678C421.067,614.335 420.883,613.987 420.883,613.701C420.883,613.416 421.067,613.065 421.607,612.723C422.148,612.38 422.992,612.125 423.941,612.125Z"/>
            <path d="M412,611.229C410.728,611.229 409.564,611.535 408.646,612.102C407.729,612.669 407,613.581 407,614.701C407,614.701 407,614.701 407,614.701C407,615.25 407.451,615.701 408,615.701L408,615.701C408.549,615.701 409,615.25 409,614.701C409,614.701 409,614.701 409,614.701C409,614.456 409.167,614.131 409.697,613.803C410.228,613.475 411.062,613.229 412,613.229C412.938,613.229 413.772,613.475 414.303,613.803C414.833,614.131 415,614.456 415,614.701C415,614.947 414.833,615.27 414.303,615.598C413.772,615.925 412.938,616.172 412,616.172C411.498,616.172 411.026,616.105 410.613,615.988C410.525,615.963 410.433,615.951 410.341,615.951C409.895,615.951 409.5,616.25 409.379,616.68C409.231,617.207 409.543,617.763 410.07,617.912C410.669,618.081 411.319,618.172 412,618.172C413.272,618.172 414.436,617.866 415.354,617.299C416.271,616.732 417,615.821 417,614.701C417,613.581 416.271,612.669 415.354,612.102C414.436,611.535 413.272,611.229 412,611.229Z"/>
        </g>
    </g>
</svg>
